<?xml version="1.0" encoding="utf-8"?>
<!-- Generator: Adobe Illustrator 16.0.4, SVG Export Plug-In . SVG Version: 6.00 Build 0)  -->
<!DOCTYPE svg PUBLIC "-//W3C//DTD SVG 1.1//EN" "http://www.w3.org/Graphics/SVG/1.1/DTD/svg11.dtd">
<svg version="1.1" id="Ebene_1" xmlns="http://www.w3.org/2000/svg" xmlns:xlink="http://www.w3.org/1999/xlink" x="0px" y="0px"
	 width="86.834px" height="125px" viewBox="0 0 86.834 125" enable-background="new 0 0 86.834 125" xml:space="preserve">
<path fill="#E6E898" d="M58.241,105.018c-21.822-2.062-38.892-20.428-38.892-42.79c0-22.363,17.069-40.727,38.892-42.791V1.041
	C26.276,3.15,1,29.727,1,62.228c0,32.499,25.275,59.077,57.24,61.187V105.018z"/>
<path fill="#C3C800" d="M58.241,105.018c-21.822-2.062-38.892-20.428-38.892-42.79c0-22.363,17.069-40.727,38.892-42.791V6.01
	C29.017,8.111,5.958,32.467,5.958,62.228c0,29.761,23.059,54.116,52.282,56.218V105.018z"/>
<g>
	<rect x="44" y="39.333" fill="#FFFFFF" width="40" height="45.667"/>
	<g>
		<polygon fill="#4D4A4B" points="45.198,75.014 45.198,40.334 63.963,40.334 63.963,36.7 41.514,36.7 41.514,89.926 63.963,89.926 
			63.963,75.014 		"/>
		<polygon fill="#343233" points="86.656,36.7 63.963,36.7 63.963,40.334 82.971,40.334 82.971,83.26 63.963,83.26 63.963,89.926 
			86.656,89.926 		"/>
		<rect x="45.198" y="40.334" fill="#FFFFFF" width="18.765" height="34.679"/>
		<rect x="45.079" y="40.334" fill="#E5E5E5" width="19.007" height="42.925"/>
		<rect x="55.635" y="68.52" fill="#343233" width="7.1" height="1.213"/>
		<rect x="63.963" y="46.575" fill="#9B729B" width="15.32" height="1.211"/>
		<rect x="55.635" y="46.575" fill="#9B729B" width="8.328" height="1.211"/>
		<rect x="55.635" y="48.997" fill="#9B729B" width="8.328" height="1.213"/>
		<rect x="63.963" y="48.997" fill="#9B729B" width="15.32" height="1.213"/>
		<rect x="55.635" y="61.25" fill="#343233" width="8.328" height="1.21"/>
		<rect x="63.963" y="61.25" fill="#343233" width="15.32" height="1.21"/>
		<rect x="63.963" y="63.672" fill="#343233" width="15.32" height="1.213"/>
		<rect x="55.635" y="63.672" fill="#343233" width="8.328" height="1.213"/>
		<rect x="63.963" y="66.096" fill="#343233" width="15.32" height="1.211"/>
		<rect x="55.635" y="66.096" fill="#343233" width="8.328" height="1.211"/>
		<rect x="63.963" y="53.913" fill="#9B729B" width="15.32" height="1.211"/>
		<rect x="55.635" y="53.913" fill="#9B729B" width="8.328" height="1.211"/>
		<rect x="55.635" y="56.334" fill="#9B729B" width="8.328" height="1.213"/>
		<rect x="63.963" y="56.334" fill="#9B729B" width="12.283" height="1.213"/>
		<g>
			<path fill="#56205A" d="M49.887,46.958c-0.059,0.033-0.129,0.067-0.213,0.103c-0.082,0.035-0.172,0.067-0.268,0.096
				c-0.094,0.029-0.189,0.057-0.285,0.081c-0.096,0.025-0.182,0.044-0.262,0.056v-0.51c0.092-0.012,0.191-0.034,0.303-0.065
				c0.109-0.03,0.217-0.066,0.322-0.108c0.105-0.041,0.207-0.086,0.303-0.134c0.094-0.048,0.174-0.094,0.236-0.14h0.502v3.873
				h-0.639V46.958z"/>
			<path fill="#56205A" d="M52.391,50.259c-0.119,0-0.221-0.04-0.301-0.121s-0.121-0.179-0.121-0.295s0.041-0.214,0.121-0.293
				c0.08-0.078,0.182-0.118,0.301-0.118c0.121,0,0.221,0.04,0.299,0.118c0.078,0.079,0.119,0.177,0.119,0.293
				s-0.041,0.214-0.119,0.295S52.512,50.259,52.391,50.259z"/>
		</g>
		<rect x="63.963" y="73.197" fill="#343233" width="15.32" height="1.211"/>
		<rect x="55.635" y="73.197" fill="#343233" width="8.328" height="1.211"/>
		<rect x="55.635" y="75.619" fill="#343233" width="8.328" height="1.213"/>
		<rect x="63.963" y="75.619" fill="#343233" width="15.32" height="1.213"/>
		<g>
			<path fill="#706F6F" d="M50.321,75.998h-1.783v-0.396l1.729-2.643h0.678v2.555h0.496v0.484h-0.496v0.834h-0.623V75.998z
				 M50.321,75.514v-1.771h-0.012l-1.125,1.771H50.321z"/>
			<path fill="#706F6F" d="M52.391,76.881c-0.119,0-0.221-0.039-0.301-0.121c-0.08-0.08-0.121-0.178-0.121-0.295
				c0-0.115,0.041-0.213,0.121-0.293c0.08-0.078,0.182-0.117,0.301-0.117c0.121,0,0.221,0.039,0.299,0.117
				c0.078,0.08,0.119,0.178,0.119,0.293c0,0.117-0.041,0.215-0.119,0.295C52.612,76.842,52.512,76.881,52.391,76.881z"/>
		</g>
		<g>
			<path fill="#56205A" d="M48.749,57.1c0.299-0.277,0.557-0.521,0.773-0.73c0.219-0.209,0.398-0.4,0.539-0.572
				s0.244-0.337,0.311-0.494s0.1-0.323,0.1-0.497c0-0.236-0.062-0.405-0.184-0.507c-0.123-0.102-0.295-0.152-0.52-0.152
				c-0.166,0-0.328,0.023-0.484,0.071c-0.158,0.048-0.285,0.097-0.379,0.146v-0.517c0.107-0.058,0.248-0.109,0.426-0.155
				c0.176-0.046,0.365-0.068,0.568-0.068c0.389,0,0.695,0.099,0.916,0.295c0.223,0.197,0.334,0.48,0.334,0.849
				c0,0.212-0.039,0.41-0.115,0.594c-0.076,0.185-0.186,0.365-0.326,0.541c-0.141,0.177-0.311,0.357-0.51,0.544
				s-0.42,0.388-0.66,0.604c0.07-0.009,0.137-0.013,0.199-0.013h1.418v0.51h-2.406V57.1z"/>
			<path fill="#56205A" d="M52.391,57.597c-0.119,0-0.221-0.04-0.301-0.121s-0.121-0.179-0.121-0.295s0.041-0.214,0.121-0.293
				c0.08-0.078,0.182-0.118,0.301-0.118c0.121,0,0.221,0.04,0.299,0.118c0.078,0.079,0.119,0.177,0.119,0.293
				s-0.041,0.214-0.119,0.295S52.512,57.597,52.391,57.597z"/>
		</g>
		<g>
			<path fill="#706F6F" d="M49.762,64.936c-0.174,0-0.342-0.014-0.504-0.041s-0.301-0.061-0.416-0.102V64.27
				c0.119,0.047,0.25,0.084,0.389,0.113c0.139,0.027,0.287,0.043,0.443,0.043c0.113,0,0.217-0.014,0.314-0.041
				s0.184-0.066,0.258-0.121s0.133-0.123,0.174-0.205c0.043-0.082,0.062-0.178,0.062-0.285c0-0.137-0.029-0.248-0.09-0.334
				c-0.061-0.084-0.139-0.152-0.236-0.201c-0.098-0.051-0.209-0.084-0.336-0.104c-0.127-0.018-0.256-0.027-0.389-0.027h-0.123
				v-0.492h0.111c0.133,0,0.258-0.007,0.375-0.021c0.119-0.015,0.223-0.044,0.314-0.09s0.162-0.107,0.215-0.187
				c0.051-0.079,0.078-0.185,0.078-0.317c0-0.174-0.057-0.306-0.172-0.395c-0.113-0.089-0.279-0.134-0.494-0.134
				c-0.162,0-0.312,0.016-0.451,0.047s-0.262,0.069-0.369,0.115v-0.498c0.1-0.045,0.225-0.086,0.377-0.121
				c0.15-0.035,0.332-0.053,0.543-0.053c0.381,0,0.682,0.086,0.898,0.258s0.326,0.409,0.326,0.712c0,0.232-0.062,0.419-0.189,0.56
				c-0.127,0.142-0.299,0.251-0.52,0.33v0.006c0.244,0.053,0.443,0.161,0.594,0.323c0.152,0.162,0.227,0.365,0.227,0.609
				c0,0.188-0.035,0.354-0.105,0.498s-0.168,0.268-0.291,0.367c-0.125,0.1-0.273,0.176-0.447,0.229
				C50.153,64.908,49.965,64.936,49.762,64.936z"/>
			<path fill="#706F6F" d="M52.391,64.936c-0.119,0-0.221-0.041-0.301-0.121c-0.08-0.082-0.121-0.18-0.121-0.295
				c0-0.117,0.041-0.215,0.121-0.293s0.182-0.119,0.301-0.119c0.121,0,0.221,0.041,0.299,0.119s0.119,0.176,0.119,0.293
				c0,0.115-0.041,0.213-0.119,0.295C52.612,64.895,52.512,64.936,52.391,64.936z"/>
		</g>
		<g>
			<g>
				<path fill="#D0AD75" d="M35.24,55.938l-2.041,1.98l12.011,5.337h0.061c0.967,0,1.752-0.785,1.752-1.751
					c0-0.965-0.785-1.75-1.752-1.75h7.855c0.967,0,1.75-0.783,1.75-1.75s-0.783-1.75-1.75-1.75H40.807l-2.055-1.695
					C38.752,54.559,36.522,54.391,35.24,55.938z"/>
				<path fill="#C0A06B" d="M32.106,58.456c-0.514,0.127-1.242,0.258-2.08,0.258l0.353,9.832h1.693
					C32.593,67.342,34.48,62.371,32.106,58.456z"/>
				<path fill="#E6BE80" d="M33.199,57.918l-0.301,0.293c0,0-0.297,0.119-0.792,0.244c2.374,3.916,0.487,8.886-0.034,10.089h0.537
					c0,0,1.209,1.709,3.049,1.709h1.806h6.418h0.232c0.965,0,1.748-0.783,1.748-1.75c0-0.965-0.783-1.75-1.748-1.75h0.684
					c0.967,0,1.75-0.783,1.75-1.75s-0.783-1.748-1.75-1.748h0.412L33.199,57.918z"/>
				<path fill="#FFFFFF" d="M24.999,64.479l-0.004,5.391l6.064,0.002c0.869-1.922,1.25-3.752,1.352-5.389
					c0.059-0.932,0.021-1.799-0.067-2.587H25L24.999,64.479z"/>
				<path fill="#CECDD0" d="M25.002,57.338L25,61.895h7.343c-0.31-2.771-1.276-4.555-1.276-4.555L25.002,57.338z"/>
				<path fill="#7C437B" d="M21.329,63.078c0,3.057,0.374,6.025,1.073,8.867l3.155,0.002c2.465,0.002,4.463-1.996,4.465-4.459
					l0.001-0.445l0.004-6.992c0-0.115-0.009-0.227-0.017-0.34h-8.527C21.382,60.821,21.329,61.944,21.329,63.078z"/>
				<path fill="#56205A" d="M21.483,59.711h8.527c-0.172-2.305-2.093-4.123-4.443-4.125l-3.477-0.002
					C21.812,56.934,21.609,58.313,21.483,59.711z"/>
				<path fill="#F4C987" d="M51.18,57.995v1.182h1.871c0,0,0.93-0.1,0.93-1.182s-0.93-1.182-0.93-1.182H51.18V57.995z"/>
			</g>
		</g>
	</g>
</g>
</svg>
