<?xml version="1.0" encoding="utf-8"?>
<!-- Generator: Adobe Illustrator 16.0.4, SVG Export Plug-In . SVG Version: 6.00 Build 0)  -->
<!DOCTYPE svg PUBLIC "-//W3C//DTD SVG 1.1//EN" "http://www.w3.org/Graphics/SVG/1.1/DTD/svg11.dtd">
<svg version="1.1" id="Ebene_1" xmlns="http://www.w3.org/2000/svg" xmlns:xlink="http://www.w3.org/1999/xlink" x="0px" y="0px"
	 width="86.834px" height="125px" viewBox="0 0 86.834 125" enable-background="new 0 0 86.834 125" xml:space="preserve">
<g>
	<path fill="#A4DFF5" d="M28.594,19.437c21.822,2.062,38.892,20.428,38.892,42.79c0,22.364-17.069,40.727-38.892,42.791v18.396
		c31.965-2.109,57.24-28.687,57.24-61.187c0-32.499-25.275-59.077-57.24-61.187V19.437z"/>
	<path fill="#00B1EB" d="M28.594,19.437c21.822,2.062,38.892,20.428,38.892,42.79c0,22.364-17.069,40.727-38.892,42.791v13.428
		c29.224-2.102,52.282-26.458,52.282-56.218c0-29.761-23.059-54.116-52.282-56.218V19.437z"/>
</g>
<g>
	<path fill="#BB9B67" d="M43.444,77.162l-0.283,4.542l-1.928-0.788c-0.553-1.433-0.838-2.895-0.941-4.296L43.444,77.162z"/>
	<path fill="#D1AD74" d="M3.971,66.01c3.212-0.623,4.798,1.808,4.798,1.808l4.281,3.948c0.601,0.938,1.807,1.159,1.807,1.159h3.863
		l21.572,3.695c0.104,1.401,0.389,2.863,0.941,4.296l-4.326-1.757c-0.871-0.468-2.244-0.399-2.244-0.399l-19.906-0.002
		c-1.472,0.036-2.512-1.306-2.512-1.306L3.839,67.125C3.347,66.414,3.971,66.01,3.971,66.01z"/>
	<path fill="#E6BE80" d="M40.292,76.62L18.72,72.925h7.98c1.16,0,1.07-1.249,1.07-1.249c0-0.938-0.709-1.249-0.709-1.249h-5.02
		c-1.135,0-2.051-0.92-2.051-2.051c0-1.135,0.916-2.054,2.051-2.054h10.436h0.303h4.473c1.203,0,2.229,0.892,2.229,0.892l1.912,1.16
		C40.978,69.594,40.015,72.895,40.292,76.62z"/>
	<path fill="#BB9B67" d="M41.394,68.374l2.502,1.518l-0.451,7.271l-3.152-0.542C40.015,72.895,40.978,69.594,41.394,68.374z"/>
	<g>
		<g>
			<path fill="#FFFFFF" d="M40.815,75.837c-0.068-1.163-0.021-2.242,0.086-3.227c0.387-3.455,1.592-5.681,1.592-5.681l7.561-0.002
				l0.004,5.683v3.222l0.006,2.353h-8.949C40.956,77.373,40.864,76.589,40.815,75.837z"/>
			<path fill="#CECED1" d="M50.063,78.185v4.369l-7.559,0.004c-0.686-1.517-1.127-2.983-1.391-4.373H50.063z"/>
			<path fill="#7B437B" d="M49.351,64.743l16.535-0.011v0.002c0,5.732-1.482,11.115-4.08,15.791H43.878
				c-0.055-0.306-0.082-0.621-0.082-0.939v-0.557l-0.006-8.72c0-0.143,0.014-0.283,0.021-0.42
				C44.026,67.012,46.421,64.745,49.351,64.743z"/>
			<path fill="#5A145A" d="M58.7,85.137l-9.336,0.006c-2.752,0.002-5.037-1.993-5.486-4.617h17.928
				C60.901,82.153,59.86,83.694,58.7,85.137z"/>
		</g>
	</g>
	<g>
		<g>
			<path fill-rule="evenodd" clip-rule="evenodd" fill="#1BAFE6" d="M36.253,34.756c5.016,9.011,1.777,20.382-7.236,25.398
				c-9.014,5.013-20.385,1.773-25.398-7.241c-5.016-9.009-1.773-20.382,7.236-25.396C19.868,22.501,31.239,25.743,36.253,34.756"/>
			<g>
				<path fill="#5A145A" d="M14.678,27.076c0.591,0.321,0.817-0.231,1.192,0.688c0.215,0.529,0.674,1.684,0.763,2.218
					c0.155,0.955-1.126,0.834-1.706,0.794c-1.125-0.074-0.553-1.18-1.374-1.681c-0.257-0.155-1.036-0.586-1.304-0.473
					c-1.015,0.431-1.923,0.549-0.889-0.777C12.224,26.741,13.279,26.995,14.678,27.076"/>
				<path fill="#5A145A" d="M25.249,26.779c0.051,0.091,0.096,0.182,0.137,0.276c-0.037,0.231-1.688,0.478-1.818,0.817
					c-0.436,0.252-0.371-0.376-0.609-0.355c-0.63,0.051-0.435,0.616-0.053,0.79c-0.133-0.062-2.592,2.571-2.59,2.63
					c-0.02-0.31,2.312,0.395,0.912,0.962c-0.629,0.254-1.902,0.446-1.166,1.367c0.313,0.387-0.098,0.584,0.424,0.934
					c0.053,0.036,1.138-0.102,1.062,0.134c0.076-0.24,1.21-1.221,0.995-1.463c-0.152-0.172,0.264-1.634,0.396-1.675
					c0.943-0.284,0.871-0.738,1.848-0.437c0.443,0.138,1.703,0.403,1.865,0.876c-0.199-0.562-0.1-0.79-0.1-0.79
					c-0.387-0.036-1.703-0.522-1.873-0.955c-0.117-0.301,1.65,0.162,1.826,0.2c0.797,0.17,0.947,0.946,1.498,1.367
					c-0.164-0.119,1.154-0.946-0.02-1.254c0.031,0.008,0.246-0.764,0.488-0.613c0.428,0.261,0.229,0.726,0.82,0.762
					c0.934,0.053,1.24-0.27,2.023-0.651c0.4-0.196,0.412,1.429,0.414,1.587c0,0.319-0.861,0.376-1.045,0.442
					c-0.391,0.145-1.17,0.369-1.582,0.363c-1.014-0.019-0.088,0.966-0.77,1.093c-0.564,0.104-2.25,0.14-2.748-0.146
					c-0.268-0.155,0.467-0.356,0.092-0.76c-0.508-0.544-1.188,0.166-1.662,0.384c-0.475,0.216-0.731,0.343-1.095,0.728
					c-0.335,0.351-1.197,0.801-1.413,1.134c-0.268,0.403-0.551,0.866-0.514,1.365c0.074,1.074-0.253,0.9-0.533,1.851
					c-0.114,0.388-0.055,1.724,0.191,2.061c0.248,0.344,1.182,1.548,0.599,1.998c-0.298,0.231,2.53,1.592,2.731,1.755
					c1.049,0.851,0.99,0.119,1.762-0.225c0.801-0.356,0.686-0.539,1.189-1.14c0.734-0.853,1.354,0.522,1.838,0.151
					c1.525-1.17,0.332,1.174,1.67,1.358c0.973,0.148,1.711,2.014,1.615,2.71c-0.09,0.656,0.322,1.129,0.791,1.493
					c0.18,0.163,0.383,0.276,0.617,0.335c0.447,0.179,0.102,0.726,0.291,0.801c1.328,0.56,0.557,0.793,2.053,0.163
					c1.377-0.583,1.131-1.974,1.863-2.541c0.562-0.433-0.156-0.554-0.014-1.05c0.188-0.648,0.754-1.148,0.861-1.822
					c0-0.824-0.24-3.324-0.631-4.776c-0.598-2.235-1.619-4.358-2.988-6.222c-1.365-1.847-3.072-3.432-5.018-4.655
					C29.382,27.819,25.036,25.331,25.249,26.779"/>
				<path fill="#5A145A" d="M9.301,31.425c-0.507-1.136-3.274,2.396-3.579,2.768c-0.148,0.187-0.9,1.412-1.162,1.403
					c-1.729-0.051-2.137,2.137-2.543,3.492c-0.436,1.441-0.996,3.723-0.021,4.944c0.564,0.709,0.283,1.394,0.601,2.199
					c0.745,1.902,1.255-0.206,0.917-0.348c0.76,0.321,0.896,1.393,1,2.093c0.104,0.679,2.095,0.866,2.59,0.875
					c0.797,0.011,1.659,0.845,2.317,0.51c0.323-0.166,0.677,0.568,0.796,0.677c0.626,0.586,1.125,0.507,1.838,0.229
					c1.098-0.427,0.273,1.153,0.119,1.431c-0.445,0.779-0.785,1.568-0.006,2.26c1.021,0.909,2.336,1.034,3.455,1.749
					c0.635,0.408,2.668,3.312,3.049,3.301c1.414-0.036,1.824-2.524,2.681-3.269c1.711-1.493-0.284-3.923-1.738-5.031
					c-0.347-0.265-0.501,0.49-0.881,0.021c-0.378-0.463-0.51-0.875-0.474-1.474c-0.371-0.029-1.117-0.012-1.431-0.289
					c-0.034-0.032-0.391-0.631-0.514-0.616c-1.764,0.221-2.683-0.115-4.277,0.783c-0.278,0.157-1.382,0.876-1.333,0.075
					c0.09-1.495-1.34-0.51-1.573-1.616c-0.188-0.913-0.778-1.053-1.566-0.342c-1.004,0.906-0.904-0.514-1.019-1.325
					c-0.117-0.83,1.891-1.855,2.5-1.407c0.234,0.172,1.264,1.333,1.566,1.153c0.983-0.586-0.1-1.159,0.191-2.163
					c0.318-1.085,0.586-2.878,1.668-3.43c1.58-0.807,1.234-2.719-0.496-3.252c-0.875-0.27-1.705-0.223-2.458,0.299
					c-0.488,0.339-0.325,1.28-0.726,1.244c-0.289-0.025-1.671-0.131-1.41-0.724c0.346-0.783,1.354-0.959,1.486-1.766
					c0.121-0.73,1.105,0.036,1.36-0.342c0.427-0.626,0.702-1.382,0.985-2.078C11.761,32.115,9.95,32.873,9.301,31.425"/>
			</g>
		</g>
	</g>
</g>
</svg>
