<?xml version="1.0" encoding="utf-8"?>
<!-- Generator: Adobe Illustrator 16.0.4, SVG Export Plug-In . SVG Version: 6.00 Build 0)  -->
<!DOCTYPE svg PUBLIC "-//W3C//DTD SVG 1.1//EN" "http://www.w3.org/Graphics/SVG/1.1/DTD/svg11.dtd">
<svg version="1.1" id="Ebene_1" xmlns="http://www.w3.org/2000/svg" xmlns:xlink="http://www.w3.org/1999/xlink" x="0px" y="0px"
	 width="86.834px" height="125px" viewBox="0 0 86.834 125" enable-background="new 0 0 86.834 125" xml:space="preserve">
<g>
	<path fill="#E7E999" d="M58.499,105.018c-21.822-2.062-38.892-20.428-38.892-42.79c0-22.364,17.069-40.727,38.892-42.791V1.041
		C26.534,3.15,1.258,29.727,1.258,62.228c0,32.499,25.275,59.077,57.24,61.187L58.499,105.018L58.499,105.018z"/>
	<path fill="#C3C800" d="M58.499,105.018c-21.822-2.062-38.892-20.428-38.892-42.79c0-22.364,17.069-40.727,38.892-42.791V6.009
		C29.275,8.111,6.216,32.467,6.216,62.228s23.059,54.116,52.282,56.217L58.499,105.018L58.499,105.018z"/>
</g>
<g>
	<polygon fill="#4D4A4B" points="43.091,86.892 43.091,37.212 61.854,37.212 61.854,33.577 39.407,33.577 39.407,90.526 
		61.854,90.526 61.854,86.892 	"/>
	<polygon fill="#343233" points="84.548,33.577 61.854,33.577 61.854,37.212 80.862,37.212 80.862,86.892 61.854,86.892 
		61.854,90.526 84.548,90.526 	"/>
	<rect x="43.091" y="37.212" fill="#FFFFFF" width="18.764" height="49.68"/>
	<rect x="42.972" y="37.212" fill="#E6E6E6" width="19.006" height="49.68"/>
	<g>
		<path fill="#BDA1BD" d="M51.966,49.511h-6.143v-6.059h6.143V49.511z M46.847,48.501h4.094v-4.039h-4.094V48.501z"/>
	</g>
	<g>
		<path fill="#BDA1BD" d="M51.966,56.849h-6.143V50.79h6.143V56.849z M46.847,55.839h4.094V51.8h-4.094V55.839z"/>
	</g>
	<g>
		<path fill="#BDA1BD" d="M51.966,64.185h-6.143v-6.057h6.143V64.185z M46.847,63.177h4.094v-4.039h-4.094V63.177z"/>
	</g>
	<rect x="53.528" y="65.397" fill="#4D4A4B" width="7.098" height="1.213"/>
	<rect x="45.823" y="79.569" fill="#343233" width="7.098" height="1.211"/>
	<path fill="#7B437B" d="M75.06,37.134c0-2.326-1.91-4.215-4.271-4.215h-5.133c0-2-1.648-3.627-3.678-3.627v1.404
		c1.242,0,2.254,0.998,2.254,2.223h-2.254v5.795H75.06V37.134z"/>
	<path fill="#5A145A" d="M59.722,32.919c0-1.225,1.012-2.223,2.256-2.223v-1.404c-2.029,0-3.678,1.627-3.678,3.627h-5.133
		c-2.359,0-4.271,1.889-4.271,4.215v1.58h13.082v-5.795H59.722z"/>
	<rect x="61.854" y="43.452" fill="#343233" width="15.32" height="1.211"/>
	<rect x="53.528" y="43.452" fill="#4D4A4B" width="8.326" height="1.211"/>
	<rect x="53.528" y="45.874" fill="#4D4A4B" width="8.326" height="1.213"/>
	<rect x="61.854" y="45.874" fill="#343233" width="15.32" height="1.213"/>
	<rect x="53.528" y="58.128" fill="#4D4A4B" width="8.326" height="1.211"/>
	<rect x="61.854" y="58.128" fill="#343233" width="15.32" height="1.211"/>
	<rect x="61.854" y="60.55" fill="#343233" width="15.32" height="1.213"/>
	<rect x="53.528" y="60.55" fill="#4D4A4B" width="8.326" height="1.213"/>
	<rect x="61.854" y="62.974" fill="#343233" width="15.32" height="1.211"/>
	<rect x="53.528" y="62.974" fill="#4D4A4B" width="8.326" height="1.211"/>
	<rect x="61.854" y="75.261" fill="#343233" width="15.32" height="1.211"/>
	<rect x="45.823" y="75.261" fill="#4D4A4B" width="16.031" height="1.211"/>
	<rect x="61.854" y="50.79" fill="#343233" width="15.32" height="1.211"/>
	<rect x="53.528" y="50.79" fill="#4D4A4B" width="8.326" height="1.211"/>
	<rect x="53.528" y="53.212" fill="#4D4A4B" width="8.326" height="1.213"/>
	<rect x="61.854" y="53.212" fill="#343233" width="12.283" height="1.213"/>
	<rect x="61.854" y="48.3" fill="#343233" width="6.688" height="1.211"/>
	<rect x="53.528" y="48.3" fill="#4D4A4B" width="8.326" height="1.211"/>
	<g>
		<g>
			<path fill="#D1AD74" d="M44.888,89.126l1.805-3.605L46.312,72.88c0,0-0.367-2.4,2.877-3.725c0,0,3.908-2.141,5.688-4.49
				c0,0,0.053-0.041,0.139-0.105l-9.348,25.398L44.888,89.126z"/>
			<path fill="#E6BE80" d="M55.015,64.56c0.432-0.311,1.828-1.186,3.289-0.709c0,0,4.51,1.383,6.422,0.674
				c0,0,0.914,2.018-1.732,3.33c0,0-2.516,0.436-4.75-0.611c0,0-3.43,2.902-1.234,7.031c0,0,2.053,0.764,3.992-2.318l3.666,2.336
				c-0.24,0.316-0.553,0.664-0.957,1.043c0,0-1.168,1.406-1.93,3.51l-1.686,3.758c0,0-1.471,2.805-3.318,3.537
				c0,0-1.412,0.729-1.662,1.943l-3.223,8.506l-6.225-6.631L55.015,64.56z"/>
			<path fill="#FDFBFC" d="M56.792,90.634l-2.43,6.072l-7.152-2.861l2.969-7.424C54.497,87.851,56.792,90.634,56.792,90.634z"/>
			<path fill="#CECED1" d="M44.241,85.612c2.275-0.1,4.26,0.254,5.938,0.809l-2.969,7.424l-5.398-2.158L44.241,85.612z"/>
			<path fill="#5A145A" d="M39.958,90.288l-1.98,4.945c1.432,1.092,2.936,2.092,4.508,2.984l4.174-10.434l-0.445-0.176
				C43.747,86.62,40.944,87.819,39.958,90.288z"/>
			<path fill="#7B437B" d="M53.663,90.589l-7.004-2.805l-4.174,10.434c3.551,2.018,7.441,3.504,11.568,4.346l2.289-5.719
				C57.331,94.376,56.13,91.573,53.663,90.589z"/>
			<g>
				<g>
					<path fill="#333333" d="M44.349,73.692c-0.229,0.061-0.459-0.074-0.52-0.301l0,0c-0.061-0.227,0.074-0.459,0.301-0.52
						l0.717-0.191c0.227-0.061,0.461,0.076,0.52,0.303l0,0c0.061,0.227-0.072,0.457-0.299,0.52L44.349,73.692z"/>
					<path fill="#333333" d="M46.267,75.132c-0.17,0.045-0.344-0.057-0.389-0.227l0,0c-0.047-0.168,0.055-0.344,0.225-0.389
						l9.232-2.451c0.17-0.045,0.344,0.057,0.391,0.225l0,0c0.045,0.172-0.057,0.346-0.229,0.391L46.267,75.132z"/>
					<path fill="#333333" d="M45.491,71.796l24.396-6.457l-0.002-0.004l3.369,0.26l-2.795,1.9v-0.002L46.063,73.95
						c-0.596,0.16-1.205-0.195-1.363-0.791S44.897,71.956,45.491,71.796z"/>
				</g>
			</g>
			<path fill="#E6BE80" d="M61.649,70.759c0,0,1.416-3.059,3.561-3.102c0,0,0.752,0.039,0.799,0.699
				c-0.381-0.18-0.943-0.285-1.414,0.281l-0.406,1.525c0,0,0.252,1.658,1.141,1.33c0.01,0.176,0.021,0.355,0.043,0.543
				c0,0,0.42,0.783-0.705,2.256l-3.666-2.336C61.218,71.606,61.437,71.214,61.649,70.759z"/>
			<path fill="#E6DBC6" d="M65.329,71.493c-0.889,0.328-1.141-1.33-1.141-1.33l0.406-1.525c0.471-0.566,1.033-0.461,1.414-0.281
				c0.002,0.023,0.004,0.045,0.004,0.072C66.013,68.429,65.245,69.569,65.329,71.493z"/>
		</g>
	</g>
	<g>
		<polygon fill="#5A145A" points="54.726,42.14 49.472,46.601 48.427,45.001 47.997,45.001 49.323,47.94 55.235,42.14 		"/>
	</g>
	<g>
		<polygon fill="#5A145A" points="54.726,49.511 49.472,53.974 48.427,52.372 47.997,52.372 49.323,55.312 55.235,49.511 		"/>
	</g>
</g>
</svg>
