<?xml version="1.0" encoding="utf-8"?>
<!-- Generator: Adobe Illustrator 16.0.4, SVG Export Plug-In . SVG Version: 6.00 Build 0)  -->
<!DOCTYPE svg PUBLIC "-//W3C//DTD SVG 1.1//EN" "http://www.w3.org/Graphics/SVG/1.1/DTD/svg11.dtd">
<svg version="1.1" id="Ebene_1" xmlns="http://www.w3.org/2000/svg" xmlns:xlink="http://www.w3.org/1999/xlink" x="0px" y="0px"
	 width="86.834px" height="125px" viewBox="0 0 86.834 125" enable-background="new 0 0 86.834 125" xml:space="preserve">
<g>
	<path fill="#E7E999" d="M58.499,105.018c-21.822-2.062-38.892-20.428-38.892-42.79c0-22.364,17.069-40.727,38.892-42.791V1.041
		C26.534,3.15,1.258,29.727,1.258,62.228c0,32.499,25.275,59.077,57.24,61.187L58.499,105.018L58.499,105.018z"/>
	<path fill="#C3C800" d="M58.499,105.018c-21.822-2.062-38.892-20.428-38.892-42.79c0-22.364,17.069-40.727,38.892-42.791V6.009
		C29.275,8.111,6.216,32.467,6.216,62.228s23.059,54.116,52.282,56.217L58.499,105.018L58.499,105.018z"/>
</g>
<g>
	<path fill="#CDAA72" d="M57.216,45.43h0.989h0.001h1.352h1.459l2.207,2.649l-2.472,0.952l-0.399,0.152l-0.268,0.414l0,0
		l-1.646,2.536l-4.724-4.85C55.092,45.766,57.216,45.43,57.216,45.43z"/>
	<g>
		<path fill="#7B437B" d="M63.004,30.344c0.69-0.69,1.813-0.692,2.506,0l19.22,19.219c0.69,0.692,0.69,1.815,0,2.505l-0.92,0.921
			L62.084,31.265L63.004,30.344z"/>
		<path fill="#7B437B" d="M80.383,56.415l-6.517,6.517c-0.692,0.69-1.815,0.69-2.508-0.002L52.142,43.713
			c-0.691-0.692-0.691-1.815,0-2.507l6.518-6.517L80.383,56.415z"/>
		
			<rect x="55.875" y="41.417" transform="matrix(0.7071 0.7071 -0.7071 0.7071 51.865 -37.5311)" fill="#1D1D1B" width="30.722" height="4.845"/>
		
			<rect x="55.071" y="46.889" transform="matrix(0.7071 0.7071 -0.7071 0.7071 53.4372 -33.6672)" fill="#FFFFFF" width="24.577" height="1.565"/>
		
			<rect x="54.634" y="49.957" transform="matrix(0.7071 0.7071 -0.7071 0.7071 55.1595 -31.6893)" fill="#FFFFFF" width="22.398" height="1.566"/>
	</g>
	<path fill="#C5A46E" d="M66.515,60.497l2.754-2.089c0.369-0.15,1.116,0.099,1.656,0.323c-0.07,0.437-0.477,0.682-0.477,0.682
		l-2.373,2.347C67.24,61.298,66.515,60.497,66.515,60.497z"/>
	<path fill="#E6BE80" d="M53.593,47.418c0.04-0.047,0.082-0.089,0.122-0.134l4.724,4.85l-2.9,4.473
		c-1.768,3.712,1.193,5.258,1.193,5.258c1.855,1.367,5.08-1.327,5.08-1.327c4.596-5.124,9.014-2.384,9.014-2.384
		c0.109,0.218,0.129,0.41,0.101,0.577c-0.54-0.225-1.286-0.474-1.657-0.323l-2.752,2.089c0,0,0.726,0.802,1.561,1.263l-5.733,5.672
		c0.265,2.916-2.12,6.273-2.12,6.273l-1.889,2.545c-1.049-0.688-2.938-2.068-5.842-2.74l-1.992-22.87L53.593,47.418z"/>
	<path fill="#E6BE80" d="M45.873,73.096l0.388-3.015l-1.369-10.823c-0.223-2.74,1.191-4.021,1.191-4.021l4.415-4.597l1.992,22.87
		C50.608,73.075,48.384,72.852,45.873,73.096z"/>
	<path fill="#BB9B67" d="M52.49,73.51l0.276,3.176l-7.302-0.418l0.408-3.172C48.384,72.852,50.608,73.075,52.49,73.51z"/>
	<path fill="#BB9B67" d="M58.333,76.25l-0.488,0.727l-5.078-0.291L52.49,73.51C55.396,74.182,57.283,75.562,58.333,76.25z"/>
	<g>
		<g>
			<path fill="#FDFBFC" d="M60.39,78.38l-2.086,9.024l-10.628-2.456l2.55-11.032C56.576,74.98,60.39,78.38,60.39,78.38z"/>
			<path fill="#CECED1" d="M41.74,74.07c3.163-0.631,6.016-0.566,8.485-0.154l-2.551,11.032l-8.021-1.854L41.74,74.07z"/>
			<path fill="#5A145A" d="M36.755,81.541l-2.541,10.991c1.97,1.946,4.148,3.685,6.497,5.176l4.882-21.122l-0.664-0.152
				C41.263,75.587,37.602,77.871,36.755,81.541z"/>
			<path fill="#7B437B" d="M55.999,78.992l-10.405-2.406l-4.882,21.122c4.903,3.112,10.551,5.155,16.618,5.796l3.776-16.336
				C61.952,83.5,59.666,79.839,55.999,78.992z"/>
		</g>
	</g>
</g>
</svg>
