<?xml version="1.0" encoding="utf-8"?>
<!-- Generator: Adobe Illustrator 16.0.4, SVG Export Plug-In . SVG Version: 6.00 Build 0)  -->
<!DOCTYPE svg PUBLIC "-//W3C//DTD SVG 1.1//EN" "http://www.w3.org/Graphics/SVG/1.1/DTD/svg11.dtd">
<svg version="1.1" id="Ebene_1" xmlns="http://www.w3.org/2000/svg" xmlns:xlink="http://www.w3.org/1999/xlink" x="0px" y="0px"
	 width="83px" height="83px" viewBox="0 0 83 83" enable-background="new 0 0 83 83" xml:space="preserve">
<path fill="none" d="M82.248,41.468c0,22.646-18.354,41-41,41c-22.646,0-41-18.354-41-41s18.354-41,41-41
	C63.895,0.468,82.248,18.821,82.248,41.468z"/>
<g>
	<polygon fill="#4E4A4C" points="25.107,53.254 25.107,18.575 43.871,18.575 43.871,14.94 21.424,14.94 21.424,68.166 
		43.871,68.166 43.871,53.254 	"/>
	<polygon fill="#353334" points="66.564,14.94 43.871,14.94 43.871,18.575 62.879,18.575 62.879,61.5 43.871,61.5 43.871,68.166 
		66.564,68.166 	"/>
	<rect x="25.107" y="18.575" fill="#FFFFFF" width="18.764" height="34.679"/>
	<rect x="24.988" y="18.575" fill="#E6E6E6" width="19.006" height="42.925"/>
	<rect x="35.545" y="46.76" fill="#353334" width="7.098" height="1.213"/>
	<rect x="43.871" y="24.815" fill="#9C739C" width="15.32" height="1.211"/>
	<rect x="35.545" y="24.815" fill="#9C739C" width="8.326" height="1.211"/>
	<rect x="35.545" y="27.237" fill="#9C739C" width="8.326" height="1.213"/>
	<rect x="43.871" y="27.237" fill="#9C739C" width="15.32" height="1.213"/>
	<rect x="35.545" y="39.491" fill="#353334" width="8.326" height="1.211"/>
	<rect x="43.871" y="39.491" fill="#353334" width="15.32" height="1.211"/>
	<rect x="43.871" y="41.913" fill="#353334" width="15.32" height="1.212"/>
	<rect x="35.545" y="41.913" fill="#353334" width="8.326" height="1.212"/>
	<rect x="43.871" y="44.336" fill="#353334" width="15.32" height="1.211"/>
	<rect x="35.545" y="44.336" fill="#353334" width="8.326" height="1.211"/>
	<rect x="43.871" y="32.153" fill="#9C739C" width="15.32" height="1.211"/>
	<rect x="35.545" y="32.153" fill="#9C739C" width="8.326" height="1.211"/>
	<rect x="35.545" y="34.575" fill="#9C739C" width="8.326" height="1.213"/>
	<rect x="43.871" y="34.575" fill="#9C739C" width="12.283" height="1.213"/>
	<g>
		<path fill="#57205A" d="M29.796,25.198c-0.058,0.033-0.128,0.067-0.211,0.103s-0.172,0.067-0.268,0.096
			c-0.095,0.029-0.19,0.057-0.286,0.081c-0.096,0.025-0.183,0.044-0.261,0.056v-0.51c0.091-0.012,0.191-0.034,0.301-0.065
			c0.11-0.03,0.218-0.066,0.323-0.108c0.106-0.041,0.207-0.086,0.302-0.134s0.174-0.094,0.236-0.14h0.503v3.873h-0.64V25.198z"/>
		<path fill="#57205A" d="M32.301,28.499c-0.121,0-0.221-0.04-0.302-0.121c-0.081-0.081-0.121-0.179-0.121-0.295
			S31.919,27.869,32,27.79c0.081-0.078,0.181-0.118,0.302-0.118c0.12,0,0.22,0.04,0.298,0.118c0.079,0.079,0.118,0.177,0.118,0.293
			s-0.04,0.214-0.118,0.295S32.421,28.499,32.301,28.499z"/>
	</g>
	<rect x="43.871" y="51.438" fill="#353334" width="15.32" height="1.211"/>
	<rect x="35.545" y="51.438" fill="#353334" width="8.326" height="1.211"/>
	<rect x="35.545" y="53.859" fill="#353334" width="8.326" height="1.213"/>
	<rect x="43.871" y="53.859" fill="#353334" width="15.32" height="1.213"/>
	<g>
		<path fill="#717070" d="M30.231,54.238h-1.784v-0.397l1.728-2.643h0.678v2.556h0.498v0.484h-0.498v0.833h-0.622V54.238z
			 M30.231,53.754v-1.772h-0.012l-1.125,1.772H30.231z"/>
		<path fill="#717070" d="M32.301,55.121c-0.121,0-0.221-0.04-0.302-0.121c-0.081-0.081-0.121-0.179-0.121-0.295
			s0.041-0.214,0.121-0.293c0.081-0.078,0.181-0.118,0.302-0.118c0.12,0,0.22,0.04,0.298,0.118c0.079,0.079,0.118,0.177,0.118,0.293
			S32.678,54.919,32.6,55S32.421,55.121,32.301,55.121z"/>
	</g>
	<g>
		<path fill="#57205A" d="M28.658,35.34c0.298-0.277,0.556-0.521,0.774-0.73s0.397-0.4,0.538-0.572
			c0.141-0.172,0.245-0.337,0.311-0.494s0.1-0.323,0.1-0.497c0-0.236-0.062-0.405-0.184-0.507s-0.295-0.152-0.519-0.152
			c-0.166,0-0.328,0.023-0.485,0.071c-0.158,0.048-0.284,0.097-0.379,0.146v-0.517c0.108-0.058,0.25-0.109,0.426-0.155
			s0.366-0.068,0.569-0.068c0.39,0,0.695,0.099,0.917,0.295c0.222,0.197,0.333,0.48,0.333,0.849c0,0.212-0.039,0.41-0.115,0.594
			c-0.077,0.185-0.186,0.365-0.327,0.541c-0.141,0.177-0.311,0.357-0.51,0.544c-0.199,0.187-0.418,0.388-0.659,0.604
			c0.07-0.009,0.137-0.013,0.199-0.013h1.417v0.51h-2.406V35.34z"/>
		<path fill="#57205A" d="M32.301,35.837c-0.121,0-0.221-0.04-0.302-0.121c-0.081-0.081-0.121-0.179-0.121-0.295
			s0.041-0.214,0.121-0.293c0.081-0.078,0.181-0.118,0.302-0.118c0.12,0,0.22,0.04,0.298,0.118c0.079,0.079,0.118,0.177,0.118,0.293
			s-0.04,0.214-0.118,0.295S32.421,35.837,32.301,35.837z"/>
	</g>
	<g>
		<path fill="#717070" d="M29.671,43.175c-0.174,0-0.342-0.014-0.503-0.04c-0.162-0.027-0.301-0.062-0.417-0.103V42.51
			c0.12,0.046,0.25,0.083,0.388,0.112c0.139,0.028,0.287,0.043,0.445,0.043c0.112,0,0.216-0.014,0.314-0.04
			c0.097-0.027,0.183-0.067,0.258-0.121c0.075-0.055,0.133-0.123,0.174-0.205c0.042-0.083,0.062-0.179,0.062-0.286
			c0-0.137-0.03-0.248-0.09-0.333s-0.139-0.152-0.236-0.202c-0.098-0.05-0.209-0.084-0.336-0.103s-0.256-0.028-0.389-0.028h-0.124
			v-0.491h0.112c0.132,0,0.258-0.007,0.376-0.021s0.223-0.044,0.314-0.09s0.163-0.107,0.214-0.187s0.078-0.185,0.078-0.317
			c0-0.174-0.057-0.306-0.171-0.395c-0.114-0.089-0.279-0.134-0.494-0.134c-0.162,0-0.312,0.016-0.451,0.047
			s-0.262,0.069-0.37,0.115v-0.498c0.1-0.045,0.225-0.086,0.376-0.121s0.333-0.053,0.544-0.053c0.381,0,0.681,0.086,0.898,0.258
			c0.217,0.172,0.326,0.409,0.326,0.712c0,0.232-0.063,0.419-0.189,0.56c-0.126,0.142-0.299,0.251-0.519,0.33v0.006
			c0.244,0.054,0.442,0.161,0.594,0.323c0.151,0.162,0.227,0.365,0.227,0.609c0,0.187-0.035,0.353-0.105,0.497
			c-0.07,0.146-0.168,0.268-0.292,0.367c-0.125,0.1-0.274,0.176-0.448,0.229C30.063,43.148,29.875,43.175,29.671,43.175z"/>
		<path fill="#717070" d="M32.301,43.175c-0.121,0-0.221-0.04-0.302-0.121c-0.081-0.081-0.121-0.179-0.121-0.295
			s0.041-0.214,0.121-0.293c0.081-0.078,0.181-0.118,0.302-0.118c0.12,0,0.22,0.04,0.298,0.118c0.079,0.079,0.118,0.177,0.118,0.293
			s-0.04,0.214-0.118,0.295S32.421,43.175,32.301,43.175z"/>
	</g>
	<g>
		<g>
			<path fill="#D2AE75" d="M15.148,34.178l-2.041,1.98l12.013,5.338h0.06c0.967,0,1.751-0.785,1.751-1.752
				c0-0.965-0.784-1.75-1.751-1.75h7.855c0.967,0,1.75-0.783,1.75-1.75s-0.783-1.75-1.75-1.75H20.717l-2.056-1.695
				C18.662,32.799,16.431,32.631,15.148,34.178z"/>
			<path fill="#C1A16B" d="M12.015,36.696c-0.514,0.127-1.242,0.258-2.081,0.258l0.353,9.832h1.693
				C12.501,45.582,14.389,40.612,12.015,36.696z"/>
			<path fill="#E7BF80" d="M13.107,36.159l-0.301,0.293c0,0-0.297,0.119-0.791,0.244c2.374,3.916,0.486,8.886-0.035,10.089h0.537
				c0,0,1.209,1.709,3.049,1.709h1.806h6.419h0.231c0.966,0,1.75-0.783,1.75-1.75c0-0.965-0.784-1.75-1.75-1.75h0.684
				c0.966,0,1.75-0.783,1.75-1.75s-0.784-1.748-1.75-1.748h0.413L13.107,36.159z"/>
			<path fill="#FFFFFF" d="M4.907,42.719l-0.003,5.391l6.063,0.002c0.869-1.922,1.25-3.752,1.352-5.389
				c0.058-0.931,0.021-1.798-0.067-2.587H4.909L4.907,42.719z"/>
			<path fill="#CFCED1" d="M4.912,35.579l-0.003,4.557h7.343c-0.309-2.771-1.277-4.555-1.277-4.555L4.912,35.579z"/>
			<path fill="#7D447C" d="M1.237,41.319c0,3.056,0.374,6.025,1.074,8.867l3.155,0.002c2.465,0.002,4.463-1.996,4.465-4.459l0-0.445
				l0.004-6.992c0-0.115-0.008-0.227-0.016-0.34H1.392C1.292,39.061,1.237,40.184,1.237,41.319z"/>
			<path fill="#57205A" d="M1.392,37.952h8.528c-0.173-2.305-2.093-4.123-4.443-4.125l-3.477-0.002
				C1.72,35.174,1.518,36.553,1.392,37.952z"/>
			<path fill="#F5CA88" d="M31.09,36.235v1.182h1.87c0,0,0.931-0.1,0.931-1.182s-0.931-1.182-0.931-1.182h-1.87V36.235z"/>
		</g>
	</g>
</g>
</svg>
