<?xml version="1.0" encoding="utf-8"?>
<!-- Generator: Adobe Illustrator 16.0.4, SVG Export Plug-In . SVG Version: 6.00 Build 0)  -->
<!DOCTYPE svg PUBLIC "-//W3C//DTD SVG 1.1//EN" "http://www.w3.org/Graphics/SVG/1.1/DTD/svg11.dtd">
<svg version="1.1" id="Ebene_1" xmlns="http://www.w3.org/2000/svg" xmlns:xlink="http://www.w3.org/1999/xlink" x="0px" y="0px"
	 width="86.834px" height="125px" viewBox="0 0 86.834 125" enable-background="new 0 0 86.834 125" xml:space="preserve">
<g>
	<path fill="#E7E999" d="M58.499,105.018c-21.822-2.062-38.892-20.428-38.892-42.79c0-22.364,17.069-40.727,38.892-42.791V1.041
		C26.534,3.15,1.258,29.727,1.258,62.228c0,32.499,25.275,59.077,57.24,61.187L58.499,105.018L58.499,105.018z"/>
	<path fill="#C3C800" d="M58.499,105.018c-21.822-2.062-38.892-20.428-38.892-42.79c0-22.364,17.069-40.727,38.892-42.791V6.009
		C29.275,8.111,6.216,32.467,6.216,62.228s23.059,54.116,52.282,56.217L58.499,105.018L58.499,105.018z"/>
</g>
<g>
	<path fill="#BB9B67" d="M44.771,77.913l0.287,4.627l1.967-0.801c0.562-1.461,0.85-2.949,0.957-4.377L44.771,77.913z"/>
	<path fill="#D1AD74" d="M84.98,66.556c-3.273-0.637-4.887,1.84-4.887,1.84l-4.361,4.021c-0.613,0.955-1.84,1.182-1.84,1.182h-3.938
		l-21.973,3.764c-0.107,1.428-0.395,2.916-0.957,4.377l4.406-1.791c0.887-0.477,2.285-0.406,2.285-0.406l20.277-0.002
		c1.5,0.035,2.557-1.33,2.557-1.33l8.564-10.52C85.615,66.966,84.98,66.556,84.98,66.556z"/>
	<path fill="#E6BE80" d="M47.982,77.362l21.973-3.764h-8.127c-1.182,0-1.092-1.271-1.092-1.271c0-0.955,0.721-1.273,0.721-1.273
		h5.115c1.154,0,2.09-0.936,2.09-2.09s-0.936-2.09-2.09-2.09H55.943h-0.309H51.08c-1.227,0-2.271,0.908-2.271,0.908l-1.947,1.18
		C47.285,70.206,48.266,73.567,47.982,77.362z"/>
	<path fill="#BB9B67" d="M46.861,68.962l-2.551,1.547l0.461,7.404l3.211-0.551C48.266,73.567,47.285,70.206,46.861,68.962z"/>
	<g>
		<g>
			<path fill="#FFFFFF" d="M47.447,76.563c0.072-1.184,0.025-2.283-0.086-3.285c-0.393-3.521-1.621-5.785-1.621-5.785l-7.7-0.004
				l-0.004,5.789l-0.002,3.281l-0.002,2.396h9.114C47.305,78.13,47.4,77.329,47.447,76.563z"/>
			<path fill="#CECED1" d="M38.032,78.956l-0.002,4.449l7.698,0.004c0.697-1.543,1.148-3.037,1.418-4.453H38.032z"/>
			<path fill="#7B437B" d="M38.757,65.265l-16.842-0.01v0.002c0,5.836,1.508,11.32,4.156,16.084H44.33
				c0.055-0.312,0.084-0.633,0.084-0.959v-0.566l0.006-8.881c0-0.145-0.012-0.287-0.021-0.428
				C44.18,67.577,41.741,65.267,38.757,65.265z"/>
			<path fill="#5A145A" d="M29.233,86.038l9.51,0.006c2.803,0.002,5.131-2.031,5.587-4.703H26.071
				C26.991,82.999,28.052,84.569,29.233,86.038z"/>
		</g>
	</g>
	<g>
		<path fill="#7B437B" d="M77.377,60.433c-1.186,0.803-3.174,1.605-5.699,1.605c-3.096,0-5.85-1.186-7.762-3.402
			c-1.453-1.607-2.408-3.824-2.754-6.578h-2.369v-1.873h2.178c0-0.191,0-0.383,0-0.574c0-0.611,0.039-1.186,0.078-1.721h-2.256
			v-1.912h2.523c0.459-2.676,1.605-4.895,3.135-6.461c1.951-2.027,4.436-3.176,7.572-3.176c2.256,0,4.014,0.65,5.084,1.225
			l-0.764,2.523c-0.957-0.572-2.562-1.07-4.283-1.07c-2.064,0-3.748,0.727-5.047,2.104c-1.148,1.109-1.912,2.83-2.295,4.855h10.668
			v1.912H64.375c-0.039,0.498-0.076,1.07-0.076,1.605c0,0.23,0,0.422,0,0.689h11.088v1.873h-10.82
			c0.305,2.219,1.07,3.863,2.104,5.01c1.414,1.492,3.326,2.217,5.391,2.217c2.027,0,3.785-0.764,4.666-1.262L77.377,60.433z"/>
	</g>
	<g>
		<path fill="#5A145A" d="M72.061,59.284c-2.064,0-3.977-0.725-5.391-2.217c-1.033-1.146-1.799-2.791-2.104-5.01h10.82v-1.873
			H64.299v-0.689c0-0.238,0.01-0.484,0.021-0.729h-3.326c-0.014,0.273-0.023,0.553-0.023,0.844v0.574h-2.178v1.873h2.369
			c0.346,2.754,1.301,4.971,2.754,6.578c1.912,2.217,4.666,3.402,7.762,3.402c2.525,0,4.514-0.803,5.699-1.605l-0.65-2.41
			C75.846,58.521,74.088,59.284,72.061,59.284z"/>
	</g>
</g>
</svg>
