<?xml version="1.0" encoding="utf-8"?>
<!-- Generator: Adobe Illustrator 16.0.4, SVG Export Plug-In . SVG Version: 6.00 Build 0)  -->
<!DOCTYPE svg PUBLIC "-//W3C//DTD SVG 1.1//EN" "http://www.w3.org/Graphics/SVG/1.1/DTD/svg11.dtd">
<svg version="1.1" id="Ebene_1" xmlns="http://www.w3.org/2000/svg" xmlns:xlink="http://www.w3.org/1999/xlink" x="0px" y="0px"
	 width="86.834px" height="125px" viewBox="0 0 86.834 125" enable-background="new 0 0 86.834 125" xml:space="preserve">
<g>
	<path fill="#A4DFF5" d="M28.594,19.437c21.822,2.062,38.892,20.428,38.892,42.79c0,22.364-17.069,40.727-38.892,42.791v18.396
		c31.965-2.109,57.24-28.687,57.24-61.187c0-32.499-25.275-59.077-57.24-61.187V19.437z"/>
	<path fill="#00B1EB" d="M28.594,19.437c21.822,2.062,38.892,20.428,38.892,42.79c0,22.364-17.069,40.727-38.892,42.791v13.428
		c29.224-2.102,52.282-26.458,52.282-56.218c0-29.761-23.059-54.116-52.282-56.218V19.437z"/>
</g>
<g>
	<path fill="#2F2E30" d="M15.43,57.294H9.979v1.061l-1.261,0.486v0.545l1.261,1.262v0.43l-1.261,0.488v0.545l1.261,1.262v1.057
		c0,1.908,1.546,3.453,3.454,3.453h1.997V57.294z"/>
	<polygon fill="#414042" points="15.43,67.882 15.766,67.882 15.43,67.183 	"/>
	<path fill="#3C3C3B" d="M22.143,60.29v-0.545l-1.261-0.486v-1.965H15.43v10.588l2.8-0.096c1.52-0.363,2.651-1.727,2.651-3.357
		v-0.152l1.261-1.26v-0.545l-1.261-0.488v-0.432L22.143,60.29z"/>
	<polygon fill="#C9A770" points="25.503,46.743 23.076,49.657 26.526,51.327 28.591,46.743 	"/>
	<path fill="#414042" d="M13.752,68.702c0,0.588,0.476,1.064,1.062,1.064h0.615v-1.359h-1.678V68.702z"/>
	<path fill="#2F2E30" d="M16.045,69.767c0.588,0,1.063-0.477,1.063-1.064v-0.295H15.43v1.359H16.045z"/>
	<path fill="#E6BE80" d="M42.142,77.144l-0.426-3.311l1.505-11.895c0.243-3.01-1.31-4.418-1.31-4.418l-4.851-5.049l-2.189,25.125
		C36.937,77.122,39.383,76.876,42.142,77.144z"/>
	<path fill="#BB9B67" d="M34.871,77.597l-0.304,3.49l8.023-0.459l-0.448-3.484C39.383,76.876,36.937,77.122,34.871,77.597z"/>
	<path fill="#BB9B67" d="M28.451,80.61l0.536,0.793l5.58-0.316l0.304-3.49C31.678,78.335,29.605,79.853,28.451,80.61z"/>
	<path fill="#C5A46E" d="M19.46,63.298l-3.024-2.293c-0.405-0.166-1.227,0.107-1.821,0.355c0.08,0.479,0.524,0.748,0.524,0.748
		l2.608,2.58C18.665,64.181,19.46,63.298,19.46,63.298z"/>
	<path fill="#E6BE80" d="M33.658,48.929c-1.504-1.795-3.979-2.186-3.979-2.186h-1.087c-0.688,1.555-1.419,3.053-2.065,4.584
		l4.997,7.699c1.941,4.078-1.312,5.775-1.312,5.775c-2.038,1.506-5.582-1.455-5.582-1.455c-5.047-5.631-9.902-2.621-9.902-2.621
		c-0.121,0.24-0.142,0.453-0.112,0.635c0.594-0.248,1.416-0.521,1.821-0.355l3.024,2.293c0,0-0.795,0.883-1.713,1.391l6.3,6.23
		c-0.292,3.203,2.329,6.895,2.329,6.895l2.075,2.797c1.154-0.758,3.227-2.275,6.419-3.014l2.189-25.125L33.658,48.929z"/>
	<path fill="#7B437B" d="M15.514,26.837c-0.017,0-0.045-0.002-0.083-0.002c-0.004,0-0.006,0-0.01,0c-0.595,0-3.716,0.084-6.76,1.707
		c-2.743,1.459-6.074,4.555-6.38,11.029c-0.008,0.283-0.131,6.895,5.917,11.449l1.233,5.758h6h0.084L15.514,26.837L15.514,26.837z"
		/>
	<path fill="#BDA1BD" d="M28.749,39.56c-0.306-6.463-3.637-9.559-6.379-11.018c-3.044-1.623-6.166-1.707-6.761-1.707
		c-0.043,0-0.074,0.002-0.094,0.002v29.941h6.084l1.235-5.758C28.879,46.466,28.757,39.854,28.749,39.56z"/>
	<polygon fill="#5A145A" points="13.816,56.224 15.233,56.224 12.958,46.763 10.125,41.448 	"/>
	<polygon fill="#5A145A" points="18.064,46.784 15.795,56.224 17.213,56.224 20.897,41.47 	"/>
	<path fill="#FFFFFF" d="M11.476,41.808c0,0,0.006-0.041,0.032-0.115c0.026-0.072,0.064-0.184,0.135-0.312
		c0.036-0.062,0.077-0.133,0.126-0.211c0.051-0.074,0.109-0.152,0.178-0.234c0.071-0.076,0.148-0.162,0.24-0.244
		c0.045-0.041,0.103-0.059,0.163-0.066c0.06-0.012,0.118-0.033,0.18-0.047c0.123-0.031,0.25-0.064,0.387-0.08
		c0.068-0.008,0.137-0.02,0.208-0.027c0.071-0.002,0.142-0.004,0.215-0.006c0.147-0.008,0.294,0.004,0.446,0.023
		c0.153,0.01,0.301,0.051,0.454,0.086c0.156,0.029,0.297,0.094,0.446,0.146c0.152,0.051,0.287,0.129,0.427,0.201
		c0.07,0.037,0.142,0.072,0.209,0.113l0.194,0.129l0.354,0.242c0.112,0.074,0.233,0.168,0.336,0.229
		c0.099,0.057,0.197,0.111,0.294,0.166c0.106,0.043,0.209,0.094,0.311,0.131c0.102,0.025,0.204,0.07,0.299,0.08
		c0.096,0.016,0.192,0.035,0.279,0.029c0.09,0.01,0.173-0.008,0.255-0.016c0.16-0.033,0.309-0.084,0.44-0.166
		c0.032-0.021,0.069-0.031,0.094-0.062c0.023-0.035,0.054-0.055,0.101-0.055c0.088-0.004,0.171-0.025,0.254-0.041
		c0.161-0.041,0.315-0.088,0.442-0.131c0.125-0.047,0.232-0.08,0.302-0.107c0.072-0.025,0.112-0.037,0.112-0.037
		s-0.017,0.162-0.084,0.438c-0.036,0.139-0.085,0.307-0.173,0.496c-0.048,0.092-0.094,0.197-0.163,0.301
		c-0.031,0.057-0.079,0.094-0.138,0.117c-0.054,0.031-0.109,0.062-0.167,0.096c-0.225,0.137-0.508,0.242-0.815,0.301
		c-0.156,0.021-0.315,0.047-0.478,0.037c-0.165,0.004-0.323-0.023-0.484-0.051c-0.164-0.023-0.309-0.084-0.467-0.127
		c-0.15-0.055-0.292-0.123-0.438-0.188c-0.143-0.074-0.284-0.158-0.426-0.24c-0.135-0.082-0.234-0.16-0.353-0.24l-0.334-0.229
		l-0.15-0.104c-0.051-0.029-0.104-0.053-0.156-0.08c-0.102-0.055-0.203-0.113-0.308-0.146c-0.104-0.035-0.205-0.086-0.308-0.102
		c-0.102-0.023-0.201-0.055-0.3-0.057c-0.098-0.014-0.194-0.023-0.287-0.018c-0.047,0.002-0.094,0.004-0.139,0.004
		c-0.045,0.006-0.089,0.012-0.132,0.02c-0.088,0.006-0.17,0.029-0.25,0.051c-0.04,0.01-0.08,0.016-0.114,0.041
		c-0.033,0.023-0.068,0.041-0.112,0.029c-0.089-0.016-0.171-0.016-0.255-0.025c-0.165-0.008-0.32-0.008-0.451,0.002
		c-0.127,0.016-0.238,0.023-0.311,0.035C11.519,41.8,11.476,41.808,11.476,41.808z"/>
	<g>
		<g>
			<path fill="#FDFBFC" d="M26.192,82.948l2.291,9.916l11.678-2.697l-2.801-12.123C30.381,79.214,26.192,82.948,26.192,82.948z"/>
			<path fill="#CECED1" d="M46.683,78.214c-3.476-0.691-6.61-0.623-9.324-0.17l2.801,12.123l8.814-2.037L46.683,78.214z"/>
			<path fill="#5A145A" d="M52.159,86.423c-0.93-4.031-4.953-6.543-8.981-5.611l-0.73,0.168l2.972,12.855
				c2.586-1.703,4.962-3.699,7.08-5.943L52.159,86.423z"/>
			<path fill="#7B437B" d="M42.554,80.979l-11.433,2.643c-4.029,0.932-6.54,4.953-5.61,8.982l1.757,7.602
				c6.704-0.598,12.928-2.859,18.257-6.371L42.554,80.979z"/>
		</g>
	</g>
</g>
</svg>
